<svg preserveAspectRatio="none" width="100%" height="100%" overflow="visible" style="display: block;" viewBox="0 0 48.0584 27.9108" fill="none" xmlns="http://www.w3.org/2000/svg">
<g id="Group">
<path id="Vector" d="M2.44704 26.071C2.71827 25.9247 2.89002 25.6594 2.89002 25.3173C2.89002 24.7843 2.46125 24.4258 1.6286 24.4258H0V27.853H1.72335C2.59865 27.8542 3.05584 27.511 3.05584 26.9177C3.05702 26.4873 2.81895 26.1936 2.44704 26.071ZM0.767513 25.0237H1.53384C1.91049 25.0237 2.11421 25.157 2.11421 25.4247C2.11421 25.6936 1.90931 25.8316 1.53384 25.8316H0.767513V25.0237ZM1.6665 27.2562H0.766328V26.4094H1.6665C2.06684 26.4094 2.28122 26.5462 2.28122 26.8352C2.28122 27.1241 2.06684 27.2562 1.6665 27.2562Z" fill="var(--fill-0, black)"/>
<path id="Vector_2" d="M2.04078 14.2656C2.6176 14.7373 3.28443 15.0876 4.00102 15.294L4.0022 15.2928C5.33706 15.6749 6.76904 15.5404 8.00795 14.9142C10.7511 13.5167 11.8384 10.1696 10.4349 7.43823C9.90068 6.39803 9.05144 5.55243 8.00795 5.02172V5.0229C6.76785 4.39666 5.33706 4.26103 4.00102 4.64432C3.35431 4.83066 2.7467 5.13494 2.21015 5.54064V0H1.45229e-08V9.96914C1.45229e-08 10.0623 0.0023695 10.1543 0.00710723 10.2463H1.45229e-08V15.2303H1.93299L2.04078 14.2656ZM4.00102 6.67047C4.4357 6.47115 4.90711 6.36855 5.38562 6.36855C6.43503 6.36855 7.37547 6.85799 8.00795 7.62929C8.54805 8.28973 8.84061 9.11646 8.83706 9.96914C8.84061 10.8206 8.54687 11.6485 8.00677 12.309C7.3731 13.0803 6.43384 13.5686 5.38443 13.5686C4.90592 13.5686 4.43452 13.4659 3.99983 13.2666C2.78342 12.71 1.93299 11.441 1.93299 9.96914C1.93299 8.4973 2.78579 7.22713 4.00102 6.67047Z" fill="var(--fill-0, black)"/>
<path id="Vector_3" d="M4.68917 24.4269L4.00102 26.0132L3.20389 27.853H3.99391L4.00102 27.8353L4.28883 27.1182H5.8357L6.13063 27.853H6.93959L5.44958 24.4258L4.68917 24.4269ZM4.53756 26.5179L5.06464 25.2053L5.59289 26.5179H4.53756Z" fill="var(--fill-0, black)"/>
<path id="Vector_4" d="M9.58325 26.5073L8.00914 24.5295L7.92623 24.4269H7.289V27.8542H8.00914H8.05059V25.7726L9.71117 27.8542H10.3448V24.4269H9.58325V26.5073Z" fill="var(--fill-0, black)"/>
<path id="Vector_5" d="M14.1457 24.4269H13.2882L12.0149 25.808L11.8124 26.0273V24.4269H11.046V27.8542H11.8124V26.9873L12.0149 26.7691L12.2601 26.5073L13.3261 27.8542H14.2262L12.7646 25.9542L14.1457 24.4269Z" fill="var(--fill-0, black)"/>
<path id="Vector_6" d="M19.934 24.4269V27.8542H20.024H20.7051V26.6052H22.2472V25.9684H20.7051V25.0626H22.4521V24.4269H20.024H19.934Z" fill="var(--fill-0, black)"/>
<path id="Vector_7" d="M17.5296 24.368C16.8794 24.368 16.3357 24.6569 16.0159 25.1169C15.8098 25.4188 15.702 25.7749 15.7056 26.1394C15.702 26.5038 15.8098 26.8611 16.0159 27.1619C16.3357 27.623 16.8794 27.9108 17.5296 27.9108C18.5766 27.9119 19.3525 27.1619 19.3525 26.1382C19.3525 25.1145 18.5766 24.368 17.5296 24.368ZM17.6184 27.2373L17.6196 27.2362C17.0239 27.2362 16.5773 26.7904 16.5773 26.1405C16.5773 25.4907 17.025 25.0449 17.6196 25.0449C18.2154 25.0449 18.6619 25.4907 18.6619 26.1405C18.6619 26.7904 18.2142 27.2373 17.6184 27.2373Z" fill="var(--fill-0, black)"/>
<path id="Vector_8" d="M20.7146 10.5223C20.7193 11.2523 20.4765 11.9623 20.024 12.5366C19.5183 13.1687 18.778 13.5686 17.9525 13.5686C17.2003 13.5686 16.5181 13.236 16.0195 12.697L16.0159 12.6911C15.5066 12.1403 15.1904 11.3714 15.1904 10.5223V4.70683H12.9814V10.5223C12.979 12.5201 14.1729 14.3269 16.0171 15.1135C17.301 15.6572 18.7567 15.636 20.024 15.0534C21.7948 14.2337 22.9259 12.4658 22.9235 10.5211V4.70565H20.7134L20.7146 10.5223Z" fill="var(--fill-0, black)"/>
<path id="Vector_9" d="M24.0357 25.0732H25.1017V27.8542H25.8739V25.0732H26.9399V24.4269H24.0357V25.0732Z" fill="var(--fill-0, black)"/>
<path id="Vector_10" d="M29.8169 25.7785H28.3032V24.4269H28.032H27.5321V27.8542H28.032H28.3032V26.4484H29.8169V27.8542H30.588V24.4269H29.8169V25.7785Z" fill="var(--fill-0, black)"/>
<path id="Vector_11" d="M35.7415 24.4269V27.8542H36.0447H36.5125V26.6052H38.0558V25.9684H36.5125V25.0626H38.2596V24.4269H36.0447H35.7415Z" fill="var(--fill-0, black)"/>
<path id="Vector_12" d="M32.0389 4.82241V4.82477L32.0377 4.82359C31.4266 4.56413 30.7692 4.42968 30.1047 4.43086C29.3893 4.42968 28.681 4.58418 28.0308 4.88373C26.2612 5.70339 25.1301 7.47243 25.1325 9.41602V15.2314H27.3415V9.41602C27.3367 8.68717 27.5795 7.97838 28.0296 7.40521V7.40639C28.5354 6.77189 29.278 6.37091 30.1036 6.37091C30.8557 6.37091 31.5391 6.70231 32.0365 7.24246L32.0377 7.24128C32.5482 7.7944 32.8656 8.56452 32.8656 9.41484V15.2303H35.0746V9.41484C35.0782 7.41582 33.8831 5.60904 32.0389 4.82241Z" fill="var(--fill-0, black)"/>
<path id="Vector_13" d="M32.0555 26.4236H33.6024V25.8068H32.0555V25.0626H33.8073V24.4269H32.0377H31.2892V27.8542H32.0377H33.8701V27.2173H32.0555V26.4236Z" fill="var(--fill-0, black)"/>
<path id="Vector_14" d="M43.0494 27.2173V26.4236H44.0526H44.5963V25.8068H44.0526H43.0494V25.0626H44.0526H44.8012V24.4269H44.0526H42.2819V27.8542H44.0526H44.8628V27.2173H44.0526H43.0494Z" fill="var(--fill-0, black)"/>
<path id="Vector_15" d="M41.6731 25.67C41.6731 24.901 41.1164 24.4269 40.2257 24.4269H40.0469H38.7843V27.8542H39.5553V26.8989H40.0469L40.0481 26.8977H40.2648L40.908 27.8518H41.7359L40.9885 26.7514C41.4208 26.5616 41.6731 26.1842 41.6731 25.67ZM40.1831 26.2679H40.0469H39.5553V25.0732H40.0469H40.1843C40.6557 25.0732 40.8937 25.2938 40.8937 25.6712C40.8926 26.0427 40.6545 26.2679 40.1831 26.2679Z" fill="var(--fill-0, black)"/>
<path id="Vector_16" d="M48.0584 4.70683H46.1254L46.0188 5.67155C45.4408 5.1998 44.7728 4.84953 44.055 4.64315V4.6455L44.0538 4.64315C42.7178 4.26103 41.2858 4.39666 40.0469 5.0229C37.3037 6.42162 36.22 9.76983 37.6259 12.5012C38.1589 13.5379 39.0069 14.3811 40.0469 14.9118V14.913C41.2858 15.5393 42.7178 15.6749 44.0538 15.2928L44.055 15.2904V15.2928C44.7029 15.1064 45.3117 14.8022 45.8494 14.3965V19.9359H48.0584V9.96796C48.0584 9.87479 48.056 9.7828 48.0513 9.69081H48.0584V4.70683ZM44.055 13.2678H44.0538C43.6203 13.4659 43.1489 13.5686 42.6716 13.5686C41.6222 13.5686 40.6805 13.0779 40.0481 12.3066L40.0469 12.3043C39.5091 11.6438 39.2166 10.8195 39.2201 9.96914C39.2166 9.11882 39.5091 8.29327 40.0469 7.63165V7.63047C40.6805 6.85799 41.621 6.36855 42.6716 6.36855C43.1489 6.36855 43.6203 6.47116 44.0538 6.66929H44.055C45.2726 7.22595 46.1254 8.49494 46.1254 9.96914C46.1254 11.4433 45.2726 12.7112 44.055 13.2678Z" fill="var(--fill-0, black)"/>
<path id="Vector_17" d="M46.2426 26.4236H47.7907V25.8068H46.2426V25.0626H47.9956V24.4269H45.4763V27.8542H48.0572V27.2173H46.2426V26.4236Z" fill="var(--fill-0, black)"/>
</g>
</svg>
