<svg preserveAspectRatio="none" width="100%" height="100%" overflow="visible" style="display: block;" viewBox="0 0 87.3962 19.3" fill="none" xmlns="http://www.w3.org/2000/svg">
<g id="hoodspot_logo_bg_dark" clip-path="url(#clip0_0_383)">
<path id="Vector" d="M78.3445 15.6585L74.4429 19.3L70.5933 15.6585H78.3445ZM8.32345 1.30054H13.0054V14.8261H8.32345V9.62399H4.16173V14.8261H0V1.30054H4.16173V5.98248H8.32345V1.30054ZM22.9935 5.51429C23.9299 6.45067 24.4501 7.75121 24.4501 9.25984C24.4501 10.8205 23.9819 12.069 22.9935 13.0054C22.0051 13.9418 20.7566 14.462 19.1439 14.462C17.5833 14.462 16.2827 13.9938 15.2943 13.0054C14.3059 12.069 13.8377 10.7685 13.8377 9.25984C13.8377 7.69919 14.3059 6.45067 15.2943 5.51429C16.2827 4.5779 17.5313 4.05768 19.1439 4.05768C20.7046 4.05768 22.0051 4.5779 22.9935 5.51429ZM20.0283 10.6124C20.2364 10.3003 20.3404 9.83208 20.3404 9.31186C20.3404 8.79164 20.2364 8.32345 20.0283 8.01132C19.8202 7.69919 19.5081 7.4911 19.1439 7.4911C18.7798 7.4911 18.4677 7.64717 18.2596 8.01132C18.0515 8.32345 17.9474 8.79164 17.9474 9.31186C17.9474 9.83208 18.0515 10.3003 18.2596 10.6124C18.4677 10.9245 18.7798 11.1326 19.1439 11.1326C19.5081 11.0806 19.8202 10.9245 20.0283 10.6124ZM33.9701 5.51429C34.9585 6.45067 35.4267 7.75121 35.4267 9.25984C35.4267 10.8205 34.9585 12.069 33.9701 13.0054C32.9817 13.9418 31.7332 14.462 30.1205 14.462C28.5598 14.462 27.2593 13.9938 26.2709 13.0054C25.2825 12.017 24.8663 10.8205 24.8663 9.25984C24.8663 7.69919 25.3345 6.45067 26.3229 5.51429C27.3113 4.5779 28.5598 4.05768 30.1725 4.05768C31.7332 4.05768 33.0337 4.5779 33.9701 5.51429ZM31.0569 10.6124C31.265 10.3003 31.369 9.83208 31.369 9.31186C31.369 8.79164 31.265 8.32345 31.0569 8.01132C30.8488 7.69919 30.5367 7.4911 30.1725 7.4911C29.8084 7.4911 29.4962 7.64717 29.2881 8.01132C29.0801 8.32345 28.976 8.79164 28.976 9.31186C28.976 9.83208 29.0801 10.3003 29.2881 10.6124C29.4962 10.9245 29.8084 11.1326 30.1725 11.1326C30.5367 11.0806 30.8488 10.9245 31.0569 10.6124ZM42.6057 14.2539V13.4736C42.3456 13.7337 42.0334 13.9938 41.5652 14.1499C41.097 14.358 40.6809 14.462 40.2127 14.462C38.8601 14.462 37.7677 13.9938 37.0394 13.0054C36.259 12.017 35.8949 10.7685 35.8949 9.25984C35.8949 7.75121 36.259 6.5027 37.0394 5.51429C37.8197 4.52588 38.8601 4.05768 40.2127 4.05768C40.6809 4.05768 41.1491 4.16172 41.5652 4.36981C42.0334 4.5779 42.3456 4.78598 42.6057 5.04609V0H46.7674V14.3059H42.6057V14.2539ZM42.6057 10.2482V8.27143C42.3976 7.80323 42.0334 7.54313 41.4612 7.54313C41.045 7.54313 40.6809 7.69919 40.4208 8.01132C40.1606 8.37547 40.0566 8.79164 40.0566 9.25984C40.0566 9.78005 40.1606 10.1442 40.4208 10.4563C40.6809 10.7685 40.993 10.9245 41.4612 10.9245C42.0334 10.9765 42.4496 10.7164 42.6057 10.2482ZM47.4437 11.0806H51.4493C51.5534 11.4968 51.8135 11.7049 52.3337 11.7049C52.7499 11.7049 52.958 11.5488 52.958 11.2887C52.958 11.1326 52.7499 10.9765 52.3857 10.9245L50.5129 10.5604C48.5881 10.1962 47.5997 9.20782 47.5997 7.59515C47.5997 6.5027 48.0159 5.61833 48.9003 4.99407C49.7326 4.36981 50.8251 4.05768 52.1256 4.05768C53.5822 4.05768 54.6747 4.36981 55.507 4.99407C56.3394 5.61833 56.8075 6.45067 56.9116 7.4911H53.114C53.062 7.07493 52.7499 6.86685 52.2817 6.86685C51.9175 6.86685 51.7094 6.97089 51.7094 7.231C51.7094 7.38706 51.8655 7.54313 52.1776 7.59515L54.1024 8.01132C56.0272 8.47951 57.0156 9.46792 57.0156 11.0806C57.0156 12.121 56.5995 12.9534 55.7151 13.5776C54.8307 14.1499 53.7383 14.462 52.3857 14.462C51.0332 14.462 49.8887 14.1499 49.0043 13.5776C48.1199 13.0054 47.5997 12.173 47.4437 11.0806ZM62.0097 13.5256V17.6353H57.848V4.26577H62.0097V5.04609C62.2698 4.78598 62.5819 4.52588 63.0501 4.36981C63.5183 4.16172 63.9345 4.05768 64.4027 4.05768C65.7553 4.05768 66.8477 4.52588 67.576 5.51429C68.3563 6.5027 68.7205 7.75121 68.7205 9.25984C68.7205 10.7685 68.3563 12.017 67.576 13.0054C66.7957 13.9938 65.7553 14.462 64.4027 14.462C63.9345 14.462 63.4663 14.358 63.0501 14.1499C62.5819 13.9938 62.2178 13.7857 62.0097 13.5256ZM62.0097 8.27143V10.2482C62.2178 10.7164 62.5819 10.9766 63.1542 10.9766C63.5704 10.9766 63.9345 10.8205 64.1946 10.5084C64.4547 10.1962 64.5588 9.78005 64.5588 9.31186C64.5588 8.79164 64.4547 8.42749 64.1946 8.11536C63.9345 7.80323 63.6224 7.64717 63.1542 7.64717C62.5819 7.59515 62.1658 7.80323 62.0097 8.27143ZM78.2925 5.51429C79.2809 6.45067 79.7491 7.75121 79.7491 9.25984C79.7491 10.8205 79.2809 12.069 78.2925 13.0054C77.304 13.9418 76.0555 14.462 74.4429 14.462C72.8822 14.462 71.5817 13.9938 70.5933 13.0054C69.6048 12.017 69.1367 10.7685 69.1367 9.25984C69.1367 7.69919 69.6048 6.45067 70.5933 5.51429C71.5817 4.5779 72.8302 4.05768 74.4429 4.05768C76.0555 4.05768 77.304 4.5779 78.2925 5.51429ZM75.3272 10.6124C75.5353 10.3003 75.6393 9.83208 75.6393 9.31186C75.6393 8.79164 75.5353 8.32345 75.3272 8.01132C75.1191 7.69919 74.807 7.4911 74.4429 7.4911C74.0787 7.4911 73.7666 7.64717 73.5585 8.01132C73.3504 8.32345 73.2464 8.79164 73.2464 9.31186C73.2464 9.83208 73.3504 10.3003 73.5585 10.6124C73.7666 10.9245 74.0787 11.1326 74.4429 11.1326C74.859 11.0806 75.1191 10.9245 75.3272 10.6124ZM81.1536 10.6644V7.54313H79.593V4.42183H81.1536V1.82075H85.3154V4.42183H87.3962V7.54313H85.3154V9.78005C85.3154 10.5084 85.6795 10.8725 86.3558 10.8725C86.7199 10.8725 86.876 10.8205 87.3962 10.7164V14.2019C86.876 14.358 86.2518 14.462 85.3674 14.462C84.0148 14.462 83.0264 14.1499 82.4022 13.4736C81.6739 12.8493 81.1536 12.017 81.1536 10.6644Z" fill="var(--fill-0, white)"/>
</g>
<defs>
<clipPath id="clip0_0_383">
<rect width="87.3962" height="19.3" fill="white"/>
</clipPath>
</defs>
</svg>
