<svg preserveAspectRatio="none" width="100%" height="100%" overflow="visible" style="display: block;" viewBox="0 0 41.4457 24.4427" fill="none" xmlns="http://www.w3.org/2000/svg">
<g id="outline">
<path id="Vector" d="M38.7749 0.849C39.2327 0.849 39.6091 1.20784 39.6318 1.66574L40.5951 20.8265C40.6064 21.0558 40.5283 21.2759 40.3744 21.4463C40.2204 21.6167 40.0093 21.7169 39.7795 21.7282L2.715 23.592L2.67028 23.5931C2.21239 23.5931 1.836 23.2343 1.81279 22.7764L0.849461 3.61561C0.838141 3.38638 0.916249 3.1662 1.0702 2.99584C1.22415 2.82547 1.43527 2.72529 1.66507 2.71397L38.7296 0.850132L38.7749 0.849ZM38.7749 0C38.746 0 38.7166 0.000565971 38.6877 0.00226397L1.62318 1.8661C0.680794 1.91365 -0.0448197 2.71623 0.00215828 3.65862L0.96549 22.8194C1.01134 23.7329 1.76638 24.4427 2.67085 24.4427C2.69971 24.4427 2.72915 24.4421 2.75801 24.4405L39.8225 22.5766C40.7649 22.5291 41.4905 21.7265 41.4435 20.7841L40.4802 1.62329C40.4344 0.709764 39.6793 0 38.7749 0Z" fill="var(--fill-0, white)"/>
</g>
</svg>
