<svg preserveAspectRatio="none" width="100%" height="100%" overflow="visible" style="display: block;" viewBox="0 0 119.4 33.3" fill="none" xmlns="http://www.w3.org/2000/svg">
<g id="IN EUROPE BLANC - SVG">
<path id="Vector" d="M7.4442 22.8V10.62H10.263V22.8H7.4442ZM13.1536 22.8V10.62H15.4852L22.6714 19.3896H21.5404V10.62H24.3244V22.8H22.0102L14.8066 14.0304H15.9376V22.8H13.1536ZM34.7265 15.5268H40.5903V17.7192H34.7265V15.5268ZM34.9353 20.538H41.5647V22.8H32.1339V10.62H41.3385V12.882H34.9353V20.538ZM49.2189 23.0088C47.4906 23.0088 46.1391 22.5274 45.1647 21.5646C44.1903 20.6018 43.7031 19.2272 43.7031 17.4408V10.62H46.5219V17.3364C46.5219 18.4964 46.7598 19.3316 47.2353 19.842C47.7108 20.3524 48.378 20.6076 49.2363 20.6076C50.0946 20.6076 50.7618 20.3524 51.2373 19.842C51.7128 19.3316 51.9507 18.4964 51.9507 17.3364V10.62H54.7347V17.4408C54.7347 19.2272 54.2475 20.6018 53.2731 21.5646C52.2987 22.5274 50.9472 23.0088 49.2189 23.0088ZM57.5202 22.8V10.62H62.7924C63.8829 10.62 64.8225 10.7998 65.6112 11.1594C66.3999 11.5074 67.0089 12.012 67.4382 12.6732C67.8675 13.3344 68.082 14.1232 68.082 15.0396C68.082 15.9444 67.8675 16.7274 67.4382 17.3886C67.0089 18.0382 66.3999 18.537 65.6112 18.885C64.8225 19.233 63.8829 19.407 62.7924 19.407H59.0862L60.339 18.1716V22.8H57.5202ZM65.2632 22.8L62.2182 18.3804H65.2284L68.3082 22.8H65.2632ZM60.339 18.4848L59.0862 17.1624H62.6358C63.5058 17.1624 64.1553 16.9768 64.5846 16.6056C65.0139 16.2228 65.2284 15.7008 65.2284 15.0396C65.2284 14.3668 65.0139 13.8448 64.5846 13.4736C64.1553 13.1024 63.5058 12.9168 62.6358 12.9168H59.0862L60.339 11.577V18.4848ZM76.2312 23.0088C75.2685 23.0088 74.3754 22.8522 73.5516 22.539C72.7398 22.2258 72.0321 21.785 71.4288 21.2166C70.8372 20.6482 70.3734 19.9812 70.0368 19.2156C69.7122 18.45 69.5496 17.6148 69.5496 16.71C69.5496 15.8052 69.7122 14.97 70.0368 14.2044C70.3734 13.4388 70.8432 12.7718 71.4462 12.2034C72.0495 11.635 72.7572 11.1942 73.569 10.881C74.3811 10.5678 75.2628 10.4112 76.2138 10.4112C77.1768 10.4112 78.0582 10.5678 78.8586 10.881C79.6707 11.1942 80.3724 11.635 80.964 12.2034C81.5673 12.7718 82.0371 13.4388 82.3734 14.2044C82.71 14.9584 82.878 15.7936 82.878 16.71C82.878 17.6148 82.71 18.4558 82.3734 19.233C82.0371 19.9986 81.5673 20.6656 80.964 21.234C80.3724 21.7908 79.6707 22.2258 78.8586 22.539C78.0582 22.8522 77.1825 23.0088 76.2312 23.0088ZM76.2138 20.6076C76.7592 20.6076 77.2578 20.5148 77.7102 20.3292C78.1743 20.1436 78.5802 19.8768 78.9282 19.5288C79.2762 19.1808 79.5432 18.769 79.7286 18.2934C79.926 17.8178 80.0244 17.29 80.0244 16.71C80.0244 16.13 79.926 15.6022 79.7286 15.1266C79.5432 14.651 79.2762 14.2392 78.9282 13.8912C78.5919 13.5432 78.1917 13.2764 77.7276 13.0908C77.2638 12.9052 76.7592 12.8124 76.2138 12.8124C75.6687 12.8124 75.1641 12.9052 74.7 13.0908C74.2476 13.2764 73.8474 13.5432 73.4994 13.8912C73.1514 14.2392 72.879 14.651 72.6816 15.1266C72.4962 15.6022 72.4032 16.13 72.4032 16.71C72.4032 17.2784 72.4962 17.8062 72.6816 18.2934C72.879 18.769 73.1457 19.1808 73.482 19.5288C73.83 19.8768 74.2362 20.1436 74.7 20.3292C75.1641 20.5148 75.6687 20.6076 76.2138 20.6076ZM84.9966 22.8V10.62H90.2688C91.359 10.62 92.2986 10.7998 93.0876 11.1594C93.8763 11.5074 94.4853 12.012 94.9146 12.6732C95.3436 13.3344 95.5584 14.1232 95.5584 15.0396C95.5584 15.9444 95.3436 16.7274 94.9146 17.3886C94.4853 18.0498 93.8763 18.5602 93.0876 18.9198C92.2986 19.2678 91.359 19.4418 90.2688 19.4418H86.5626L87.8154 18.1716V22.8H84.9966ZM87.8154 18.4848L86.5626 17.145H90.1122C90.9822 17.145 91.6317 16.9594 92.061 16.5882C92.49 16.217 92.7048 15.7008 92.7048 15.0396C92.7048 14.3668 92.49 13.8448 92.061 13.4736C91.6317 13.1024 90.9822 12.9168 90.1122 12.9168H86.5626L87.8154 11.577V18.4848ZM100.163 15.5268H106.027V17.7192H100.163V15.5268ZM100.372 20.538H107.002V22.8H97.5708V10.62H106.775V12.882H100.372V20.538Z" fill="var(--fill-0, white)"/>
</g>
</svg>
