<svg preserveAspectRatio="none" width="100%" height="100%" overflow="visible" style="display: block;" viewBox="0 0 98.1639 12.5976" fill="none" xmlns="http://www.w3.org/2000/svg">
<g id="IN FRANCE">
<path id="Vector" d="M0 12.3888V0.208801H2.8188V12.3888H0ZM5.70939 12.3888V0.208801H8.04099L15.2272 8.9784H14.0962V0.208801H16.8802V12.3888H14.566L7.36239 3.6192H8.49339V12.3888H5.70939ZM27.2997 5.6898H33.1461V7.9518H27.2997V5.6898ZM27.5085 12.3888H24.6897V0.208801H33.8943V2.4708H27.5085V12.3888ZM35.8026 12.3888V0.208801H41.0748C42.165 0.208801 43.1046 0.388591 43.8936 0.748201C44.6823 1.0962 45.2913 1.6008 45.7206 2.262C46.1496 2.9232 46.3644 3.71199 46.3644 4.6284C46.3644 5.5332 46.1496 6.3162 45.7206 6.9774C45.2913 7.62699 44.6823 8.1258 43.8936 8.4738C43.1046 8.8218 42.165 8.9958 41.0748 8.9958H37.3686L38.6214 7.7604V12.3888H35.8026ZM43.5456 12.3888L40.5006 7.9692H43.5108L46.5906 12.3888H43.5456ZM38.6214 8.0736L37.3686 6.7512H40.9182C41.7882 6.7512 42.4377 6.56559 42.867 6.1944C43.296 5.8116 43.5108 5.2896 43.5108 4.6284C43.5108 3.95559 43.296 3.43359 42.867 3.0624C42.4377 2.69121 41.7882 2.5056 40.9182 2.5056H37.3686L38.6214 1.1658V8.0736ZM46.9968 12.3888L52.4256 0.208801H55.2096L60.6558 12.3888H57.6978L53.2434 1.6356H54.357L49.8852 12.3888H46.9968ZM49.7112 9.7788L50.4594 7.6386H56.7234L57.489 9.7788H49.7112ZM61.9194 12.3888V0.208801H64.251L71.4372 8.9784H70.3062V0.208801H73.0902V12.3888H70.776L63.5724 3.6192H64.7034V12.3888H61.9194ZM81.801 12.5976C80.8614 12.5976 79.9857 12.4468 79.1736 12.1452C78.3732 11.832 77.6772 11.3912 77.0856 10.8228C76.494 10.2544 76.0302 9.5874 75.6936 8.8218C75.369 8.0562 75.2064 7.21521 75.2064 6.2988C75.2064 5.38239 75.369 4.5414 75.6936 3.7758C76.0302 3.0102 76.494 2.34321 77.0856 1.7748C77.6889 1.20639 78.3906 0.771391 79.191 0.469801C79.9914 0.156601 80.8674 0 81.8184 0C82.8741 0 83.8254 0.185611 84.672 0.556801C85.5306 0.916411 86.2497 1.44999 86.8296 2.1576L85.02 3.828C84.6024 3.35241 84.1386 2.99859 83.628 2.7666C83.1177 2.523 82.5609 2.4012 81.9576 2.4012C81.3894 2.4012 80.8674 2.49399 80.3916 2.6796C79.9161 2.86521 79.5042 3.132 79.1562 3.48C78.8082 3.828 78.5358 4.23981 78.3384 4.7154C78.153 5.19099 78.06 5.71881 78.06 6.2988C78.06 6.87879 78.153 7.40661 78.3384 7.8822C78.5358 8.35779 78.8082 8.7696 79.1562 9.1176C79.5042 9.4656 79.9161 9.73239 80.3916 9.918C80.8674 10.1036 81.3894 10.1964 81.9576 10.1964C82.5609 10.1964 83.1177 10.0804 83.628 9.8484C84.1386 9.6048 84.6024 9.2394 85.02 8.7522L86.8296 10.4226C86.2497 11.1302 85.5306 11.6696 84.672 12.0408C83.8254 12.412 82.8684 12.5976 81.801 12.5976ZM91.3257 5.1156H97.1895V7.308H91.3257V5.1156ZM91.5345 10.1268H98.1639V12.3888H88.7331V0.208801H97.9377V2.4708H91.5345V10.1268Z" fill="var(--fill-0, white)"/>
</g>
</svg>
