<svg preserveAspectRatio="none" width="100%" height="100%" overflow="visible" style="display: block;" viewBox="0 0 35.9267 36.2893" fill="none" xmlns="http://www.w3.org/2000/svg">
<g id="i">
<path id="Trac&#195;&#169; 347" d="M31.6222 23.0253C32.2237 23.3478 32.8997 23.507 33.5823 23.487C34.1568 23.5054 34.7264 23.3768 35.2371 23.1136C35.445 22.4017 35.603 21.6762 35.7098 20.9424H30.3023C30.4404 21.925 30.8736 22.6119 31.6222 23.0253Z" fill="var(--fill-0, #005EFF)"/>
<path id="Trac&#195;&#169; 348" d="M35.3948 16.3318C34.801 15.884 34.0702 15.6549 33.3264 15.6832C32.4303 15.6832 31.7407 15.919 31.2677 16.3622C30.8683 16.7311 30.5872 17.2097 30.46 17.7377H35.9266C35.9168 17.4429 35.9069 17.1678 35.8872 16.8829C35.7587 16.6703 35.5918 16.4834 35.3948 16.3318Z" fill="var(--fill-0, #005EFF)"/>
<path id="Trac&#195;&#169; 349" d="M27.8793 25.4911C26.2246 24.2903 25.3972 22.318 25.3972 19.6528C25.3972 17.1631 26.1457 15.2204 27.6233 13.873C29.091 12.5355 31.0117 11.8619 33.3269 11.8619C33.8342 11.8594 34.3411 11.892 34.8439 11.9595C33.5392 8.43482 31.1782 5.39622 28.0818 3.25658C24.9854 1.11694 21.3036 -0.0199886 17.5368 0.000265997C13.77 0.0205206 10.1008 1.19698 7.02767 3.36979C3.95455 5.5426 1.62656 8.60642 0.360007 12.1449C1.08971 11.9759 1.83698 11.8939 2.58608 11.9008C4.55607 11.9008 6.21083 12.3107 7.48137 13.1308C8.80119 13.9704 9.58914 15.4545 9.8255 17.534C9.83518 17.6605 9.79643 17.786 9.71706 17.8852C9.67541 17.9333 9.62405 17.972 9.56633 17.9989C9.5086 18.0259 9.44582 18.0403 9.38211 18.0413H5.33275C5.22616 18.0387 5.12375 17.9994 5.04295 17.93C4.96216 17.8606 4.90797 17.7654 4.88961 17.6606C4.82937 17.233 4.66354 16.8271 4.40702 16.4792C4.04251 16.0398 3.48106 15.8153 2.68325 15.8153C1.52093 15.8153 0.782027 16.3034 0.359534 17.3382C0.0944717 18.0971 -0.0258961 18.8987 0.0046411 19.7017C-0.0256476 20.4661 0.094856 21.2291 0.359305 21.9472C0.763021 22.9333 1.48219 23.3922 2.6248 23.3922C3.41275 23.3922 3.96434 23.2163 4.25985 22.8649C4.60945 22.4284 4.82178 21.8986 4.87012 21.342C4.88388 21.2352 4.93675 21.1372 5.01855 21.0669C5.10036 20.9966 5.20533 20.959 5.31327 20.9613H9.3516C9.41238 20.96 9.47275 20.9715 9.52877 20.995C9.58479 21.0186 9.63519 21.0537 9.67669 21.098C9.71967 21.1412 9.7525 21.1934 9.77279 21.2508C9.79309 21.3082 9.80035 21.3694 9.79405 21.43C9.67314 22.6545 9.18581 23.8145 8.39536 24.7592C7.05582 26.4189 5.08583 27.2683 2.52481 27.2683C2.27859 27.2683 2.03191 27.2585 1.79602 27.2489C3.41575 29.9997 5.7277 32.2809 8.50297 33.8665C11.2782 35.4522 14.4206 36.2873 17.6189 36.2893C20.8172 36.2913 23.9606 35.46 26.7378 33.8777C29.5151 32.2955 31.8298 30.0171 33.453 27.2683C31.4518 27.2895 29.4971 26.6662 27.8793 25.4911Z" fill="var(--fill-0, #005EFF)"/>
<path id="Trac&#195;&#169; 356" d="M20.9038 27.1677H23.2874V29.054H12.9938V27.1677H15.3577V14.3378H12.9938V12.4503H20.9038V27.1677Z" fill="var(--fill-0, white)"/>
<path id="Trac&#195;&#169; 357" d="M14.8476 6.91707C14.8439 6.52085 14.9197 6.1279 15.0706 5.76137C15.2215 5.39484 15.4444 5.06214 15.7262 4.78286C16.008 4.50359 16.343 4.2834 16.7114 4.13526C17.0798 3.98713 17.4743 3.91404 17.8714 3.9203C18.2634 3.91272 18.6528 3.98555 19.0153 4.13428C19.3779 4.28302 19.706 4.50447 19.9792 4.78491C20.2624 5.06212 20.4854 5.39439 20.6345 5.76112C20.7836 6.12784 20.8556 6.52121 20.846 6.91683C20.848 7.30702 20.7724 7.69373 20.6237 8.05461C20.4749 8.41548 20.2559 8.74335 19.9792 9.01926C19.7026 9.29518 19.3739 9.51365 19.0121 9.66205C18.6503 9.81046 18.2626 9.88585 17.8714 9.88386C17.4744 9.89204 17.0797 9.8206 16.7109 9.67376C16.3421 9.52693 16.0065 9.3077 15.7242 9.02908C15.439 8.7571 15.2138 8.42882 15.0629 8.06519C14.9119 7.70155 14.8386 7.31053 14.8476 6.91707Z" fill="var(--fill-0, white)"/>
</g>
</svg>
