<svg preserveAspectRatio="none" width="100%" height="100%" overflow="visible" style="display: block;" viewBox="0 0 123.084 42.832" fill="none" xmlns="http://www.w3.org/2000/svg">
<g id="Logo-societe_2022">
<g id="Groupe 617">
<path id="Trac&#195;&#169; 349" d="M86.9018 14.209C85.3815 10.1019 82.6304 6.56127 79.0224 4.06813C75.4144 1.57498 71.1244 0.250207 66.7352 0.273808C62.3461 0.297409 58.0706 1.66824 54.4898 4.20004C50.9089 6.73184 48.1963 10.3019 46.7205 14.425M48.3938 32.0244C50.2811 35.2297 52.975 37.8878 56.2088 39.7354C59.4426 41.583 63.1042 42.5562 66.8309 42.5585C70.5576 42.5607 74.2204 41.5921 77.4564 39.7484C80.6925 37.9048 83.3897 35.25 85.281 32.047" stroke="var(--stroke-0, white)" stroke-width="0.546997"/>
</g>
<path id="Trac&#195;&#169; 350" d="M5.39515 24.9792C5.51002 25.8492 5.7507 26.4559 6.12976 26.8223C6.79546 27.4748 8.02347 27.7954 9.82527 27.7954C10.6833 27.8271 11.5388 27.6829 12.3387 27.3717C12.9585 27.0855 13.2686 26.6624 13.2686 26.0895C13.2745 25.8326 13.2076 25.5792 13.0756 25.3585C12.9437 25.1378 12.752 24.9587 12.5225 24.8417C12.0175 24.5555 10.1544 24.0671 6.9333 23.3765C4.61486 22.85 2.97359 22.1974 2.03249 21.4074C1.07989 20.6288 0.610295 19.5185 0.610295 18.0519C0.610295 16.3346 1.3564 14.8579 2.83684 13.6216C4.31729 12.3853 6.40627 11.7665 9.10324 11.7665C11.6512 11.7665 13.7399 12.236 15.3467 13.1633C16.9535 14.0906 17.8831 15.6933 18.1125 17.9715H12.775C12.7344 17.428 12.5304 16.9093 12.1897 16.4833C11.6044 15.8193 10.5944 15.4873 9.18255 15.4873C8.02347 15.4873 7.18602 15.6477 6.69208 15.9783C6.19814 16.309 5.94597 16.6996 5.94597 17.1345C5.93695 17.3936 6.00827 17.6491 6.15022 17.8663C6.29216 18.0834 6.49781 18.2516 6.73912 18.3479C7.26788 18.6113 9.12722 19.0616 12.3171 19.6988C14.4403 20.1569 16.0367 20.8446 17.1033 21.7721C17.6066 22.2056 18.0083 22.744 18.28 23.3493C18.5517 23.9546 18.6868 24.6121 18.6757 25.2752C18.6897 26.1545 18.4916 27.0243 18.0982 27.8113C17.7047 28.5983 17.1273 29.2794 16.4147 29.7972C14.9104 30.9648 12.5698 31.5486 9.42515 31.5486C6.21154 31.5486 3.83575 30.9303 2.29778 29.6935C1.56952 29.1413 0.982031 28.4256 0.582964 27.6045C0.183898 26.7835 -0.0155023 25.8801 0.000940335 24.9678H5.39515V24.9792Z" fill="var(--fill-0, white)"/>
<path id="Trac&#195;&#169; 351" d="M36.5999 29.0634C35.108 30.7349 32.8585 31.5705 29.8284 31.5705C26.7983 31.5705 24.5499 30.7349 23.0568 29.0634C21.5726 27.4034 20.7767 25.2426 20.8303 23.0189C20.7942 20.8051 21.5883 18.6576 23.0568 16.9973C24.5488 15.3029 26.7983 14.4444 29.8284 14.4444C32.8585 14.4444 35.1069 15.2915 36.5999 16.9973C38.0372 18.6806 38.8265 20.8194 38.8265 23.0304C38.8265 25.2414 38.0372 27.3801 36.5999 29.0634ZM32.9159 26.7509C33.639 25.8809 33.9948 24.6331 33.9948 23.0304C33.9948 21.4162 33.6393 20.1798 32.9159 19.3099C32.1925 18.4399 31.1598 18.0048 29.8172 18.0048C28.4746 18.0048 27.4298 18.4399 26.7069 19.3099C25.9841 20.1798 25.6165 21.4162 25.6165 23.0304C25.6165 24.6445 25.9838 25.8809 26.7069 26.7509C27.4301 27.6208 28.4743 28.0559 29.8172 28.0559C31.16 28.0559 32.1925 27.6208 32.9156 26.7509H32.9159Z" fill="var(--fill-0, white)"/>
<path id="Trac&#195;&#169; 352" d="M52.5804 20.7287C52.4951 20.1407 52.2665 19.5825 51.9147 19.1031C51.3984 18.4505 50.5948 18.13 49.5047 18.13C47.9438 18.13 46.8878 18.8284 46.314 20.2363C45.978 21.1878 45.8223 22.1934 45.8548 23.2017C45.8169 24.1689 45.9727 25.134 46.313 26.0405C46.8638 27.3799 47.8968 28.0439 49.4232 28.0439C50.5021 28.0439 51.2709 27.7807 51.7187 27.2528C52.2017 26.6681 52.4904 25.948 52.5449 25.1923H57.2529C57.1214 26.5252 56.5939 27.7886 55.738 28.8206C54.292 30.6637 52.1571 31.5795 49.3108 31.5795C46.4759 31.5795 44.3871 30.8124 43.0444 29.2784C41.7017 27.7443 41.0317 25.7568 41.0344 23.316C41.0344 20.557 41.7729 18.4124 43.2498 16.8822C44.7302 15.3482 46.7618 14.5811 49.3671 14.5811C51.5824 14.5811 53.384 15.0391 54.7958 15.932C56.2076 16.8364 57.0338 18.4276 57.2977 20.7173H52.5804V20.7287Z" fill="var(--fill-0, white)"/>
<path id="Trac&#195;&#169; 353" d="M89.1822 15.291C90.3992 15.7857 91.4528 16.6106 92.2235 17.6723C92.958 18.6466 93.4391 19.7873 93.6238 20.9923C93.7656 22.0507 93.8156 23.1193 93.7732 24.1863H80.9529C81.0218 25.8005 81.6416 26.9223 82.8007 27.5748C83.5779 27.996 84.4528 28.2053 85.3371 28.1815C86.2477 28.2241 87.1471 27.9666 87.8965 27.4488C88.2879 27.1486 88.6123 26.7705 88.8491 26.3385H93.5546C93.4283 27.2886 92.866 28.2617 91.8444 29.2463C90.2721 30.8146 88.057 31.5924 85.2222 31.5924C82.9916 31.6251 80.8114 30.9296 79.0138 29.6118C77.2233 28.2953 76.3281 26.1507 76.3281 23.178C76.3281 20.3954 77.1316 18.2556 78.7496 16.7786C80.3678 15.2904 82.4681 14.5463 85.0505 14.5463C86.4638 14.5162 87.8688 14.7694 89.1822 15.291ZM82.2961 18.9193C81.6175 19.5854 81.1847 20.4609 81.0681 21.4034H88.9995C88.9191 20.2931 88.5072 19.4458 87.7715 18.862C86.9875 18.2688 86.0233 17.9618 85.0398 17.992C83.8567 18.004 82.95 18.312 82.2958 18.9198L82.2961 18.9193Z" fill="var(--fill-0, white)"/>
<path id="Trac&#195;&#169; 354" d="M94.249 18.1303V15.1423H96.7053V10.6661H101.262V15.1423H104.12V18.1303H101.262V26.6251C101.262 27.2891 101.353 27.6891 101.537 27.8615C101.721 28.0219 102.283 28.1018 103.213 28.1018C103.349 28.1018 103.5 28.1018 103.66 28.0904C103.821 28.0904 103.97 28.0789 104.119 28.0674V31.2047L101.939 31.2734C99.7581 31.3422 98.2777 30.9987 97.4741 30.2431C96.9575 29.7624 96.6935 29.0182 96.6935 28.0222V18.1303H94.249Z" fill="var(--fill-0, white)"/>
<path id="Trac&#195;&#169; 355" d="M118.478 15.2909C119.695 15.7856 120.749 16.6105 121.52 17.6722C122.254 18.6465 122.735 19.7872 122.92 20.9922C123.062 22.0506 123.112 23.1192 123.069 24.1862H110.249C110.318 25.8004 110.938 26.9221 112.097 27.5747C112.874 27.9959 113.749 28.2052 114.633 28.1814C115.544 28.224 116.443 27.9665 117.193 27.4487C117.584 27.1485 117.909 26.7704 118.145 26.3383H122.851C122.725 27.2885 122.162 28.2616 121.141 29.2462C119.568 30.8145 117.353 31.5923 114.518 31.5923C112.288 31.625 110.108 30.9295 108.31 29.6117C106.519 28.2955 105.624 26.1511 105.624 23.1785C105.624 20.3959 106.428 18.256 108.046 16.779C109.664 15.2908 111.764 14.5467 114.346 14.5467C115.76 14.5164 117.165 14.7695 118.478 15.2909ZM111.592 18.9192C110.914 19.5853 110.481 20.4608 110.364 21.4033H118.296C118.215 20.293 117.803 19.4457 117.068 18.8619C116.284 18.2687 115.32 17.9616 114.336 17.9919C113.164 18.0039 112.246 18.3119 111.592 18.9197L111.592 18.9192Z" fill="var(--fill-0, white)"/>
<path id="Trac&#195;&#169; 356" d="M70.6585 31.9299H73.4359V34.1278H61.4416V31.9299H64.196V16.9802H61.4416V14.7809H70.6585V31.9299Z" fill="var(--fill-0, white)"/>
<path id="Trac&#195;&#169; 357" d="M63.6016 8.33333C63.5973 7.87166 63.6857 7.41378 63.8615 6.98669C64.0373 6.5596 64.297 6.17193 64.6254 5.84652C64.9538 5.52111 65.3441 5.26454 65.7734 5.09193C66.2027 4.91931 66.6623 4.83415 67.1251 4.84145C67.5818 4.83261 68.0355 4.91748 68.458 5.09078C68.8805 5.26409 69.2628 5.52213 69.5811 5.84891C69.911 6.17192 70.1709 6.55908 70.3447 6.9864C70.5184 7.41371 70.6023 7.87207 70.5912 8.33306C70.5935 8.78772 70.5054 9.23832 70.332 9.65882C70.1587 10.0793 69.9035 10.4614 69.5812 10.7829C69.2588 11.1044 68.8758 11.3589 68.4542 11.5318C68.0327 11.7048 67.5809 11.7926 67.1251 11.7903C66.6625 11.7998 66.2026 11.7166 65.7728 11.5455C65.343 11.3744 64.9521 11.1189 64.6231 10.7943C64.2908 10.4774 64.0284 10.0949 63.8525 9.67115C63.6766 9.24743 63.5912 8.79181 63.6016 8.33333Z" fill="var(--fill-0, white)"/>
</g>
</svg>
