<svg viewBox="0 0 105.632 36.2893" fill="none" xmlns="http://www.w3.org/2000/svg">
  <!-- Letters: soc_ete — translated down to vertically center in circle height -->
  <g transform="translate(0, 9.1646)">
    <!-- s -->
    <path d="M4.63016 12.2838C4.72874 13.0304 4.93529 13.5511 5.26061 13.8655C5.83192 14.4255 6.88581 14.7006 8.43213 14.7006C9.16852 14.7278 9.90267 14.6041 10.5892 14.337C11.1211 14.0914 11.3872 13.7283 11.3872 13.2366C11.3923 13.0161 11.3349 12.7987 11.2216 12.6093C11.1084 12.4198 10.9438 12.2661 10.7469 12.1658C10.3135 11.9201 8.71458 11.5009 5.95022 10.9083C3.96051 10.4564 2.55196 9.89642 1.7443 9.21841C0.926771 8.55022 0.52376 7.59734 0.52376 6.3387C0.52376 4.8649 1.16407 3.5976 2.4346 2.53656C3.70513 1.47552 5.49792 0.944532 7.81247 0.944532C9.99911 0.944532 11.7917 1.34746 13.1706 2.14324C14.5496 2.93902 15.3474 4.31448 15.5443 6.26964H10.9636C10.9288 5.80322 10.7537 5.35812 10.4613 4.9925C9.95898 4.42265 9.09216 4.13772 7.88054 4.13772C6.88581 4.13772 6.1671 4.27539 5.7432 4.55914C5.31929 4.8429 5.10288 5.17816 5.10288 5.55135C5.09514 5.7737 5.15635 5.99301 5.27817 6.17938C5.39998 6.36575 5.57648 6.51009 5.78357 6.59273C6.23736 6.81873 7.83305 7.20519 10.5707 7.7521C12.3928 8.14519 13.7628 8.73541 14.6782 9.53143C15.1101 9.90341 15.4549 10.3655 15.688 10.885C15.9212 11.4045 16.0371 11.9687 16.0276 12.5378C16.0397 13.2924 15.8697 14.0389 15.532 14.7143C15.1943 15.3897 14.6988 15.9742 14.0872 16.4186C12.7963 17.4206 10.7875 17.9217 8.08874 17.9217C5.3308 17.9217 3.29187 17.391 1.97197 16.3296C1.34698 15.8557 0.842787 15.2415 0.500305 14.5368C0.157823 13.8322 -0.0133042 13.0569 0.000807003 12.2739H4.63016V12.2838Z" fill="#000E47"/>
    <!-- o -->
    <path d="M31.4105 15.7887C30.1301 17.2232 28.1995 17.9403 25.5991 17.9403C22.9986 17.9403 21.069 17.2232 19.7877 15.7887C18.5139 14.3641 17.8308 12.5096 17.8768 10.6013C17.8459 8.70136 18.5274 6.85839 19.7877 5.4335C21.0681 3.97937 22.9986 3.24259 25.5991 3.24259C28.1995 3.24259 30.1291 3.96953 31.4105 5.4335C32.6439 6.8781 33.3213 8.7136 33.3213 10.6111C33.3213 12.5086 32.6439 14.3441 31.4105 15.7887ZM28.2488 13.8041C28.8694 13.0575 29.1748 11.9866 29.1748 10.6111C29.1748 9.22581 28.8696 8.16477 28.2488 7.41815C27.628 6.67154 26.7417 6.29812 25.5895 6.29812C24.4372 6.29812 23.5406 6.67154 22.9202 7.41815C22.2999 8.16477 21.9844 9.22581 21.9844 10.6111C21.9844 11.9964 22.2996 13.0575 22.9202 13.8041C23.5408 14.5507 24.437 14.9241 25.5895 14.9241C26.7419 14.9241 27.628 14.5507 28.2486 13.8041H28.2488Z" fill="#000E47"/>
    <!-- c -->
    <path d="M45.1252 8.63586C45.0519 8.13123 44.8558 7.6522 44.5539 7.24073C44.1107 6.68071 43.4211 6.40561 42.4855 6.40561C41.146 6.40561 40.2397 7.00497 39.7473 8.21327C39.4589 9.02988 39.3253 9.89284 39.3532 10.7582C39.3207 11.5883 39.4543 12.4165 39.7464 13.1945C40.2191 14.344 41.1056 14.9138 42.4156 14.9138C43.3415 14.9138 44.0013 14.6879 44.3856 14.2349C44.8001 13.7331 45.0479 13.1151 45.0947 12.4666H49.1351C49.0222 13.6105 48.5695 14.6947 47.835 15.5804C46.594 17.1621 44.7618 17.9481 42.3191 17.9481C39.8862 17.9481 38.0936 17.2898 36.9412 15.9732C35.7889 14.6567 35.2139 12.951 35.2163 10.8563C35.2163 8.48852 35.85 6.64801 37.1175 5.33474C38.388 4.01827 40.1315 3.35992 42.3675 3.35992C44.2687 3.35992 45.8148 3.75301 47.0264 4.51929C48.238 5.29541 48.9471 6.66104 49.1736 8.62603H45.1252V8.63586Z" fill="#000E47"/>
    <!-- e (first) -->
    <path d="M76.537 3.96929C77.5813 4.39382 78.4856 5.10181 79.147 6.01293C79.7774 6.84911 80.1903 7.82802 80.3488 8.8622C80.4705 9.77053 80.5133 10.6876 80.4769 11.6033H69.4745C69.5337 12.9886 70.0655 13.9513 71.0603 14.5113C71.7273 14.8728 72.4782 15.0525 73.2371 15.032C74.0186 15.0686 74.7904 14.8476 75.4335 14.4032C75.7694 14.1456 76.0478 13.8211 76.2511 13.4503H80.2894C80.181 14.2657 79.6984 15.1009 78.8217 15.9458C77.4723 17.2918 75.5713 17.9592 73.1385 17.9592C71.2241 17.9874 69.3531 17.3905 67.8104 16.2595C66.2737 15.1296 65.5054 13.2891 65.5054 10.738C65.5054 8.34994 66.195 6.51349 67.5836 5.24595C68.9724 3.96874 70.7748 3.33013 72.9911 3.33013C74.204 3.30431 75.4098 3.52165 76.537 3.96929ZM70.6272 7.08311C70.0448 7.65479 69.6734 8.40613 69.5733 9.21502H76.3802C76.3112 8.26215 75.9577 7.53496 75.3263 7.03394C74.6535 6.52487 73.826 6.26134 72.9819 6.28733C71.9665 6.29763 71.1884 6.56195 70.627 7.08358L70.6272 7.08311Z" fill="#000E47"/>
    <!-- t -->
    <path d="M80.8853 6.40581V3.84147H82.9933V0H86.9037V3.84147H89.3563V6.40581H86.9035V13.6961C86.9035 14.266 86.9823 14.6092 87.1398 14.7572C87.2976 14.8948 87.7801 14.9634 88.5779 14.9634C88.6953 14.9634 88.8242 14.9634 88.9622 14.9536C89.1 14.9536 89.2281 14.9438 89.356 14.9339V17.6264L87.4846 17.6854C85.6132 17.7443 84.3427 17.4496 83.6531 16.8011C83.2097 16.3885 82.9832 15.7499 82.9832 14.8951V6.40581H80.8853Z" fill="#000E47"/>
    <!-- e (second) -->
    <path d="M101.679 3.96926C102.724 4.39378 103.628 5.10177 104.289 6.01291C104.92 6.84907 105.333 7.82799 105.491 8.86218C105.613 9.77051 105.656 10.6876 105.619 11.6033H94.6169C94.6761 12.9886 95.208 13.9513 96.2027 14.5113C96.8697 14.8728 97.6206 15.0524 98.3795 15.032C99.161 15.0686 99.9329 14.8476 100.576 14.4031C100.912 14.1456 101.19 13.8211 101.393 13.4503H105.432C105.323 14.2657 104.841 15.1008 103.964 15.9458C102.615 17.2917 100.714 17.9592 98.2809 17.9592C96.3666 17.9874 94.4955 17.3905 92.9528 16.2595C91.416 15.1299 90.6476 13.2896 90.6476 10.7384C90.6476 8.35039 91.3372 6.51394 92.7258 5.2464C94.1147 3.96918 95.9172 3.33058 98.1333 3.33058C99.3462 3.30457 100.552 3.52176 101.679 3.96926ZM95.7696 7.08309C95.1873 7.65479 94.8159 8.40612 94.7157 9.215H101.523C101.454 8.26212 101.1 7.53494 100.469 7.03392C99.7959 6.52485 98.9684 6.26132 98.1243 6.2873C97.1188 6.29761 96.3311 6.56146 95.7696 7.08309Z" fill="#000E47"/>
  </g>

  <!-- Blue circle with white i — centered on the gap at x≈57.33 -->
  <g transform="translate(39.37, 0)">
    <path d="M31.6222 23.0253C32.2237 23.3478 32.8997 23.507 33.5823 23.487C34.1568 23.5054 34.7264 23.3768 35.2371 23.1136C35.445 22.4017 35.603 21.6762 35.7098 20.9424H30.3023C30.4404 21.925 30.8736 22.6119 31.6222 23.0253Z" fill="#005EFF"/>
    <path d="M35.3948 16.3318C34.801 15.884 34.0702 15.6549 33.3264 15.6832C32.4303 15.6832 31.7407 15.919 31.2677 16.3622C30.8683 16.7311 30.5872 17.2097 30.46 17.7377H35.9266C35.9168 17.4429 35.9069 17.1678 35.8872 16.8829C35.7587 16.6703 35.5918 16.4834 35.3948 16.3318Z" fill="#005EFF"/>
    <path d="M27.8793 25.4911C26.2246 24.2903 25.3972 22.318 25.3972 19.6528C25.3972 17.1631 26.1457 15.2204 27.6233 13.873C29.091 12.5355 31.0117 11.8619 33.3269 11.8619C33.8342 11.8594 34.3411 11.892 34.8439 11.9595C33.5392 8.43482 31.1782 5.39622 28.0818 3.25658C24.9854 1.11694 21.3036 -0.0199886 17.5368 0.000265997C13.77 0.0205206 10.1008 1.19698 7.02767 3.36979C3.95455 5.5426 1.62656 8.60642 0.360007 12.1449C1.08971 11.9759 1.83698 11.8939 2.58608 11.9008C4.55607 11.9008 6.21083 12.3107 7.48137 13.1308C8.80119 13.9704 9.58914 15.4545 9.8255 17.534C9.83518 17.6605 9.79643 17.786 9.71706 17.8852C9.67541 17.9333 9.62405 17.972 9.56633 17.9989C9.5086 18.0259 9.44582 18.0403 9.38211 18.0413H5.33275C5.22616 18.0387 5.12375 17.9994 5.04295 17.93C4.96216 17.8606 4.90797 17.7654 4.88961 17.6606C4.82937 17.233 4.66354 16.8271 4.40702 16.4792C4.04251 16.0398 3.48106 15.8153 2.68325 15.8153C1.52093 15.8153 0.782027 16.3034 0.359534 17.3382C0.0944717 18.0971 -0.0258961 18.8987 0.0046411 19.7017C-0.0256476 20.4661 0.094856 21.2291 0.359305 21.9472C0.763021 22.9333 1.48219 23.3922 2.6248 23.3922C3.41275 23.3922 3.96434 23.2163 4.25985 22.8649C4.60945 22.4284 4.82178 21.8986 4.87012 21.342C4.88388 21.2352 4.93675 21.1372 5.01855 21.0669C5.10036 20.9966 5.20533 20.959 5.31327 20.9613H9.3516C9.41238 20.96 9.47275 20.9715 9.52877 20.995C9.58479 21.0186 9.63519 21.0537 9.67669 21.098C9.71967 21.1412 9.7525 21.1934 9.77279 21.2508C9.79309 21.3082 9.80035 21.3694 9.79405 21.43C9.67314 22.6545 9.18581 23.8145 8.39536 24.7592C7.05582 26.4189 5.08583 27.2683 2.52481 27.2683C2.27859 27.2683 2.03191 27.2585 1.79602 27.2489C3.41575 29.9997 5.7277 32.2809 8.50297 33.8665C11.2782 35.4522 14.4206 36.2873 17.6189 36.2893C20.8172 36.2913 23.9606 35.46 26.7378 33.8777C29.5151 32.2955 31.8298 30.0171 33.453 27.2683C31.4518 27.2895 29.4971 26.6662 27.8793 25.4911Z" fill="#005EFF"/>
    <!-- i bar (white) -->
    <path d="M20.9038 27.1677H23.2874V29.054H12.9938V27.1677H15.3577V14.3378H12.9938V12.4503H20.9038V27.1677Z" fill="white"/>
    <!-- i dot (white) -->
    <path d="M14.8476 6.91707C14.8439 6.52085 14.9197 6.1279 15.0706 5.76137C15.2215 5.39484 15.4444 5.06214 15.7262 4.78286C16.008 4.50359 16.343 4.2834 16.7114 4.13526C17.0798 3.98713 17.4743 3.91404 17.8714 3.9203C18.2634 3.91272 18.6528 3.98555 19.0153 4.13428C19.3779 4.28302 19.706 4.50447 19.9792 4.78491C20.2624 5.06212 20.4854 5.39439 20.6345 5.76112C20.7836 6.12784 20.8556 6.52121 20.846 6.91683C20.848 7.30702 20.7724 7.69373 20.6237 8.05461C20.4749 8.41548 20.2559 8.74335 19.9792 9.01926C19.7026 9.29518 19.3739 9.51365 19.0121 9.66205C18.6503 9.81046 18.2626 9.88585 17.8714 9.88386C17.4744 9.89204 17.0797 9.8206 16.7109 9.67376C16.3421 9.52693 16.0065 9.3077 15.7242 9.02908C15.439 8.7571 15.2138 8.42882 15.0629 8.06519C14.9119 7.70155 14.8386 7.31053 14.8476 6.91707Z" fill="white"/>
  </g>
</svg>
